<?xml version="1.0" encoding="UTF-8"?>
<svg id="Layer_1" xmlns="http://www.w3.org/2000/svg" xmlns:xlink="http://www.w3.org/1999/xlink" version="1.1" viewBox="0 0 926.5 293.8">
  <!-- Generator: Adobe Illustrator 29.2.1, SVG Export Plug-In . SVG Version: 2.1.0 Build 116)  -->
  <defs>
    <style>
      .st0 {
        fill: none;
      }

      .st1 {
        fill: #fff;
      }

      .st1, .st2 {
        fill-rule: evenodd;
      }

      .st3, .st4 {
        isolation: isolate;
      }

      .st4 {
        fill: #065e4e;
        font-family: Fund-Medium, Fund;
        font-size: 26.3px;
        font-weight: 500;
      }

      .st2 {
        fill-opacity: 0;
      }

      .st5 {
        clip-path: url(#clippath);
      }
    </style>
    <clipPath id="clippath">
      <rect class="st0" x="-20.5" y="-45.4" width="960" height="540"/>
    </clipPath>
  </defs>
  <g class="st5">
    <g>
      <path class="st1" d="M-20.5-45.4h960V494.6H-20.5V-45.4Z"/>
      <path class="st2" d="M-20.5,67.7h960v242.4H-20.5V67.7Z"/>
      <path d="M21.9,218V86.3h24.8v131.8h-24.8,0ZM73.6,218v-93.8h22.6v11.8h1.5c2-2.9,4.4-5.5,7.2-7.7,2.8-2.2,6-3.9,9.7-5.1,3.6-1.2,7.5-1.8,11.7-1.8,6.9,0,12.7,1.6,17.6,4.8s8.2,7.1,10.2,11.8c2.8-4.5,6.8-8.4,12-11.7,5.2-3.2,11.7-4.9,19.4-4.9,10.9,0,19.1,3.3,24.6,9.9,5.5,6.6,8.2,15.5,8.2,26.5v60.4h-23.9v-55.9c0-6-1.4-10.6-4.2-13.7-2.8-3.1-6.6-4.7-11.4-4.7s-7.8,1.1-11,3.4c-3.1,2.3-5.5,5.4-7.2,9.5-1.7,4-2.5,8.8-2.5,14.2v47.3h-24.1v-55.9c0-6-1.4-10.6-4.3-13.7-2.9-3.1-7-4.7-12.2-4.7s-7.4,1.1-10.4,3.4c-3,2.3-5.3,5.4-6.9,9.5-1.6,4-2.4,8.8-2.4,14.2v47.3h-24.1v-.4h0ZM283.4,260.7c-8.5,0-15.8-1.3-22-4-6.2-2.6-11.2-6-15.2-10.2-3.9-4.2-6.7-8.5-8.3-13.1l22.6-9.2c2,4.5,4.9,8.2,8.9,11s8.6,4.1,13.9,4.1c7.5,0,13.5-2.3,18-6.9,4.5-4.6,6.8-11.2,6.8-20v-7.4h-1.5c-2.9,4.2-6.8,7.4-11.6,9.6-4.8,2.2-10.2,3.3-16.4,3.3s-14.8-2-21.4-5.9c-6.7-3.9-12.1-9.5-16.2-16.7-4.1-7.2-6.2-15.8-6.2-25.8s2.1-18.7,6.2-25.9c4.1-7.2,9.5-12.7,16.2-16.6,6.7-3.9,13.8-5.9,21.4-5.9s11.6,1.1,16.4,3.2,8.7,5.4,11.6,9.7h1.5v-9.9h23.2v87.4c0,10.1-2,18.8-5.9,26.1s-9.5,13-16.7,17c-7.2,4-15.7,6-25.5,6h.2ZM283.8,196.1c4.3,0,8.3-1,12-3s6.7-5,9-9,3.4-8.8,3.4-14.5-1.1-10.8-3.4-14.7-5.3-6.9-9-8.8c-3.7-2-7.8-3-12-3s-8.4,1-12.2,3c-3.8,2-6.8,4.9-9.1,8.8-2.3,3.9-3.4,8.8-3.4,14.7s1.1,10.6,3.4,14.6,5.3,7,9.1,8.9c3.8,2,7.9,2.9,12.2,2.9h0ZM398,221c-7.5,0-14.5-1.4-21.1-4.2s-12.3-7-17.1-12.6-8.5-12.4-11-20.5l23.4-9.2c1.7,6.5,4.7,12,9,16.4s9.9,6.6,16.9,6.6,6.7-.6,9.8-1.8c3.1-1.2,5.6-2.9,7.5-5.2s2.9-5.2,2.9-8.7-.8-6.2-2.4-8.5c-1.6-2.4-4.3-4.7-8-6.8s-8.8-4.4-15.2-6.7l-8.1-2.9c-3.6-1.4-7.2-3-10.8-5.1-3.6-2-6.9-4.5-9.9-7.5s-5.4-6.5-7.3-10.4c-1.8-3.9-2.8-8.4-2.8-13.4s1.8-13.1,5.3-18.7c3.6-5.6,8.5-10,14.9-13.3s13.8-5,22.3-5,16.1,1.5,21.9,4.5,10.3,6.6,13.5,10.9,5.6,8.5,6.9,12.5l-21.9,9.2c-.7-2.5-2-4.8-3.7-7s-3.9-4-6.6-5.3c-2.7-1.4-5.9-2-9.8-2s-6.8.6-9.6,1.8c-2.8,1.2-5,2.8-6.6,4.8s-2.4,4.4-2.4,7.1c0,3.9,1.7,7.3,5.1,10.1s8.8,5.5,16.3,7.9l8.3,2.8c4.7,1.6,9.1,3.5,13.3,5.6,4.2,2.1,8,4.8,11.3,8s5.9,7,7.8,11.4,2.9,9.7,2.9,15.8-1.3,12.6-4,17.7-6.3,9.1-10.7,12.3-9.3,5.6-14.6,7.2-10.6,2.4-15.7,2.4v-.2h0ZM452.1,124.2h63.5v20.6h-63.5v-20.6h0ZM468.5,188.1v-90.4h24.1v85.9c0,4.3.9,7.6,2.8,9.8,1.8,2.3,4.9,3.4,9.2,3.4s4.5-.4,6.2-1.1c1.7-.7,3.5-1.7,5.6-2.9v23.5c-2.6,1-5.3,1.7-8,2.3s-5.7.8-8.7.8c-9.7,0-17.3-2.8-22.8-8.4-5.5-5.6-8.3-13.3-8.3-23.1v.2h-.1ZM569.5,221c-11.5,0-20.2-3.6-25.9-10.7-5.8-7.1-8.6-16.8-8.6-29.1v-57h24.1v54.1c0,6.4,1.6,11.4,4.7,15,3.1,3.6,7.2,5.4,12.1,5.4s8.8-1.2,12.1-3.6c3.3-2.4,5.9-5.6,7.6-9.7,1.8-4.1,2.7-8.5,2.7-13.4v-47.8h24.1v93.8h-22.6v-11.8h-1.5c-1.8,2.9-4.2,5.5-7.2,7.7-2.9,2.2-6.2,3.9-9.8,5.1-3.6,1.2-7.5,1.8-11.7,1.8v.2h0ZM685.3,221c-8.6,0-16.3-2.1-23.2-6.3s-12.3-10.1-16.3-17.6-6-16.1-6-26,2-18.5,6-25.9c4-7.5,9.4-13.3,16.3-17.6,6.9-4.2,14.6-6.3,23.2-6.3s8.6.7,12.3,2,6.9,3.1,9.6,5.3c2.7,2.2,4.8,4.5,6.2,7h1.5l-1.5-13.2v-36.1h23.9v131.8h-22.4v-11.2h-1.5c-1.5,2.4-3.6,4.7-6.2,6.9s-5.9,3.9-9.6,5.2c-3.7,1.4-7.8,2-12.3,2ZM689.3,198.7c4.5,0,8.7-1.2,12.6-3.5,3.9-2.3,7-5.6,9.4-9.7,2.4-4.1,3.6-8.9,3.6-14.5s-1.2-10.3-3.6-14.4c-2.4-4.1-5.5-7.3-9.4-9.6s-8.1-3.4-12.6-3.4-8.6,1.1-12.4,3.4c-3.9,2.3-7,5.4-9.4,9.5-2.4,4-3.6,8.9-3.6,14.5s1.2,10.4,3.6,14.5c2.4,4.2,5.5,7.4,9.4,9.7s8,3.4,12.4,3.4h0ZM762.5,218v-93.8h24.1v93.8h-24.1ZM774.7,113.9c-4.3,0-8-1.5-11-4.6-3.1-3.1-4.6-6.8-4.6-11s1.5-7.9,4.6-10.9,6.8-4.5,11-4.5,7.9,1.5,10.9,4.5,4.5,6.6,4.5,10.9-1.5,8-4.5,11c-3,3.1-6.6,4.6-10.9,4.6ZM855.6,221c-9.8,0-18.5-2.2-26-6.5-7.5-4.4-13.4-10.3-17.7-17.8-4.2-7.5-6.3-16-6.3-25.5s2.1-17.9,6.3-25.5c4.2-7.5,10.1-13.5,17.7-17.8,7.6-4.4,16.2-6.5,26-6.5s18.5,2.2,25.9,6.6c7.5,4.4,13.3,10.4,17.6,17.8,4.2,7.5,6.3,15.9,6.3,25.4s-2.1,17.9-6.3,25.5c-4.2,7.5-10.1,13.5-17.6,17.8-7.5,4.4-16.1,6.5-25.9,6.5h0ZM855.6,198.5c4.7,0,8.9-1.1,12.8-3.2,3.9-2.1,7-5.3,9.4-9.4,2.4-4.1,3.6-9.1,3.6-14.8s-1.2-10.7-3.6-14.7c-2.4-4.1-5.5-7.2-9.4-9.4s-8.1-3.3-12.6-3.3-9,1.1-13,3.3-7.2,5.3-9.6,9.4c-2.4,4.1-3.6,9-3.6,14.7s1.2,10.7,3.6,14.8c2.4,4.1,5.6,7.2,9.6,9.4,4,2.1,8.3,3.2,12.8,3.2Z"/>
      <path class="st2" d="M6.2,2.8h652.6v116.3H6.2V2.8Z"/>
      <path d="M34.4,73.7h-1.3s0-.3-.3-1l-15.4-55c-.3-1.2-.5-1.8-.5-1.8h3s0,.3.2.9l13.4,48.6.8,3h0l.9-3,14.4-48.4c.2-.8.4-1.2.4-1.2h3.1s0,.4.4,1.2l14.3,48.4.9,3h0l.8-3,13.4-48.6c.2-.6.2-.9.2-.9h3.1s-.2.6-.6,1.8l-15.6,55c-.2.7-.3,1-.3,1h-2.4s0-.3-.3-1l-14.8-50.6-.6-2h0l-.6,2-15,50.6c-.2.7-.3,1-.3,1h-1.3ZM106.1,73.8c-5.8,0-10.7-2-14.7-6s-5.9-9.1-5.9-15.2h0c0-6.2,2-11.3,6-15.3s8.8-6,14.4-6,10.3,1.8,13.9,5.4c3.6,3.6,5.4,8.2,5.4,13.9h0v1.7h-38v-2.6h34.9c0-4.6-1.6-8.3-4.6-11.2s-6.8-4.4-11.6-4.4-8.9,1.7-12.3,5.2-5.1,7.9-5.1,13.3h0c0,5.3,1.7,9.7,5.2,13.2,3.5,3.4,7.6,5.2,12.4,5.2s4.5-.3,6.3-1,3.4-1.6,4.8-2.8c1.4-1.2,2.5-2.4,3.3-3.8l1.3-2s.4.2,1.3.6c.9.4,1.3.6,1.3.6,0,0-.4.7-1.3,2.2-.8,1.5-2.1,2.9-3.9,4.4-1.7,1.5-3.6,2.6-5.8,3.4-2.1.8-4.6,1.2-7.4,1.2h0ZM133.6,73.2h-1.5V16h3v57.3h-1.5ZM162.9,73.8c-5.9,0-10.7-2-14.6-6-3.9-4-5.8-9.1-5.8-15.3h0c0-6.1,1.9-11.2,5.8-15.2,3.9-4,8.8-6,14.6-6s5.4.4,7.6,1.3c2.2.9,4.1,2.1,5.7,3.5,1.6,1.5,2.7,2.9,3.4,4.4.7,1.4,1,2.1,1,2.1l-1.4.6c-.9.4-1.4.6-1.4.6,0,0-.3-.6-.9-1.8-.6-1.2-1.5-2.4-2.8-3.7s-2.9-2.4-4.8-3.2c-1.9-.8-4-1.2-6.4-1.2-4.9,0-9.1,1.8-12.4,5.2-3.3,3.5-5,7.9-5,13.2h0c0,5.4,1.7,9.8,5,13.3,3.4,3.5,7.5,5.2,12.4,5.2s4.3-.4,6.1-1.1c1.8-.8,3.3-1.8,4.7-3.2,1.4-1.4,2.5-2.7,3.1-4,.7-1.3,1-1.9,1-1.9,0,0,.5.2,1.4.6.9.4,1.4.6,1.4.6,0,0-.3.7-1,2.2-.7,1.4-1.8,2.9-3.5,4.5s-3.5,2.8-5.6,3.8-4.7,1.4-7.7,1.4h0ZM205.9,73.8c-5.9,0-10.8-2-14.7-6.1s-5.9-9.1-5.9-15.1h0c0-5.9,2-11,5.9-15.1s8.8-6.1,14.7-6.1,10.8,2,14.8,6.1,5.9,9.1,5.9,15.1h0c0,6-2,11-5.9,15.1s-8.9,6.1-14.8,6.1ZM205.9,70.9c5,0,9.2-1.7,12.6-5.2,3.4-3.5,5.1-7.9,5.1-13.2h0c0-5.2-1.7-9.6-5.1-13.1-3.4-3.5-7.6-5.2-12.6-5.2s-9.1,1.7-12.5,5.2-5.1,7.8-5.1,13.1h0c0,5.3,1.7,9.7,5.1,13.2,3.4,3.5,7.5,5.2,12.5,5.2ZM235.4,73.2h-1.5V31.8h2.9v10.2h0c.9-3.2,2.6-5.8,5.3-7.8s5.7-3,9.2-3,6.7,1,9.1,2.9,3.8,4.7,4.1,8.4c1.1-3.6,3.1-6.3,5.8-8.3s5.8-3,9.2-3,7.9,1.4,10.3,4.1c2.4,2.7,3.6,6.3,3.6,10.8v27.1h-2.9v-26.4c0-3.9-1-7-2.9-9.3s-4.8-3.4-8.5-3.4-6.6,1.2-9.3,3.7c-2.7,2.4-4.3,5.8-4.6,10v25.4h-2.9v-26.3c0-4.3-1-7.5-3.1-9.6-2.1-2.1-4.9-3.2-8.5-3.2s-6.9,1.3-9.6,4c-2.8,2.7-4.1,6.3-4.1,10.9v24.2h-1.6ZM320.7,73.8c-5.8,0-10.7-2-14.7-6s-5.9-9.1-5.9-15.2h0c0-6.2,2-11.3,6-15.3s8.8-6,14.4-6,10.3,1.8,13.9,5.4c3.6,3.6,5.4,8.2,5.4,13.9h0v1.7h-38v-2.6h34.9c0-4.6-1.6-8.3-4.6-11.2s-6.8-4.4-11.6-4.4-8.9,1.7-12.3,5.2-5.1,7.9-5.1,13.3h0c0,5.3,1.7,9.7,5.2,13.2,3.5,3.4,7.6,5.2,12.4,5.2s4.5-.3,6.3-1,3.4-1.6,4.8-2.8c1.4-1.2,2.5-2.4,3.3-3.8l1.3-2s.4.2,1.3.6c.9.4,1.3.6,1.3.6,0,0-.4.7-1.3,2.2-.8,1.5-2.1,2.9-3.9,4.4-1.7,1.5-3.6,2.6-5.8,3.4-2.1.8-4.6,1.2-7.4,1.2h.1ZM376.2,73.8c-2.7,0-4.8-.8-6.5-2.3-1.7-1.6-2.5-4.1-2.5-7.6V20.9h2.9v42.9c0,2.5.6,4.4,1.7,5.6,1.2,1.2,2.8,1.8,4.8,1.8s1.6,0,2.4-.3,1.4-.4,2-.6.9-.4.9-.4v2.6s-.3,0-.9.4-1.3.5-2.2.7c-.8.2-1.7.3-2.5.3h0ZM360.9,34.4h-1.1v-2.5h21.8v2.5h-20.7,0ZM405.9,73.8c-5.9,0-10.8-2-14.7-6.1-3.9-4.1-5.9-9.1-5.9-15.1h0c0-5.9,2-11,5.9-15.1s8.8-6.1,14.7-6.1,10.8,2,14.8,6.1,5.9,9.1,5.9,15.1h0c0,6-2,11-5.9,15.1s-8.9,6.1-14.8,6.1ZM405.9,70.9c5,0,9.2-1.7,12.6-5.2s5.1-7.9,5.1-13.2h0c0-5.2-1.7-9.6-5.1-13.1s-7.6-5.2-12.6-5.2-9.1,1.7-12.5,5.2-5.1,7.8-5.1,13.1h0c0,5.3,1.7,9.7,5.1,13.2,3.4,3.5,7.5,5.2,12.5,5.2Z"/>
      <path class="st2" d="M701.6,243.1h195.9v34.4h-195.9v-34.4Z"/>
      <path class="st2" d="M475.1,242.4h218.7v32.3h-218.7v-32.3h0Z"/>
      <path d="M553.9,268h-.9v-19.1h1.9v2.5l-.2.2c.5-.9,1.2-1.6,2.2-2.1,1.1-.5,2.2-.8,3.5-.8,1.9,0,3.5.7,4.8,2.1s2,3.1,2,5.2h0c0,2.1-.7,3.8-2,5.2-1.4,1.4-3,2-4.9,2s-2.4-.3-3.4-.8-1.8-1.2-2.2-2.1l.2.2v7.5h-1,0ZM559.9,261.3c1.6,0,2.8-.5,3.8-1.5s1.5-2.3,1.5-4h0c0-1.7-.5-3-1.5-4s-2.3-1.5-3.8-1.5-2.8.5-3.8,1.6-1.4,2.3-1.4,3.9h0c0,1.6.5,2.9,1.5,3.9s2.2,1.5,3.7,1.5h0ZM575.9,263.1c-2,0-3.8-.7-5.1-2.1-1.4-1.4-2.1-3.1-2.1-5.1h0c0-2,.7-3.7,2.1-5.1,1.4-1.4,3.1-2.1,5.1-2.1s3.8.7,5.1,2.1c1.4,1.4,2.1,3.1,2.1,5.1h0c0,2-.7,3.7-2.1,5.1-1.4,1.4-3.1,2.1-5.1,2.1ZM575.9,261.3c1.4,0,2.7-.5,3.7-1.5s1.6-2.3,1.6-3.8h0c0-1.5-.5-2.8-1.6-3.8s-2.3-1.5-3.7-1.5-2.7.5-3.7,1.5-1.5,2.3-1.5,3.8h0c0,1.5.5,2.8,1.5,3.8s2.3,1.5,3.7,1.5ZM588.8,263.1h-.8s0-.2-.2-.6l-4.1-12.4-.4-1.2h2s0,.2.2.6l3.1,9.8.3,1h0l.3-1,3-9.7c0-.5.2-.7.2-.7h1.8s0,.2.2.7l2.9,9.7.3,1h0l.3-.9,3.2-9.9c0-.3.2-.5.2-.5h1.8s0,.3-.3,1l-4.1,12.5c0,.4-.2.6-.2.6h-1.6s0-.2-.2-.6l-3.2-10.1-.3-1h0l-.3,1-3.1,10.1c0,.4-.2.6-.2.6h-.9,0ZM610.7,263.1c-2,0-3.7-.7-5.1-2s-2.1-3.1-2.1-5.2h0c0-2.1.7-3.8,2.1-5.2,1.4-1.4,3.1-2,5-2s3.6.6,4.9,1.9c1.2,1.2,1.9,2.8,1.9,4.8h0v1.1h-12.9v-1.7h10.9c0-1.2-.5-2.2-1.4-3s-2-1.2-3.4-1.2-2.7.5-3.7,1.6c-1,1-1.5,2.3-1.5,3.9h0c0,1.6.5,2.9,1.6,3.9s2.3,1.5,3.7,1.5,1.3,0,1.9-.3c.5-.2,1-.5,1.4-.8s.8-.7,1-1.2.4-.7.4-.7l.8.4.8.4-.4.8c-.3.5-.7,1.1-1.4,1.6-.6.5-1.3.9-2,1.2-.7.3-1.6.4-2.6.4v-.2h0ZM620.4,262.9h-.9v-14h1.9v2.2h0c.5-.8,1.2-1.5,1.9-1.9.8-.4,1.5-.6,2.1-.6h1.3v1.9h-.2s-.3-.1-.5-.1h-.6c-1.1,0-2,.4-2.8,1.2s-1.2,1.9-1.2,3.3v7.8h-1v.2ZM634.5,263.1c-2,0-3.7-.7-5.1-2s-2.1-3.1-2.1-5.2h0c0-2.1.7-3.8,2.1-5.2,1.4-1.4,3.1-2,5-2s3.6.6,4.9,1.9c1.2,1.2,1.9,2.8,1.9,4.8h0v1.1h-12.9v-1.7h10.9c0-1.2-.5-2.2-1.4-3s-2-1.2-3.4-1.2-2.7.5-3.7,1.6c-1,1-1.5,2.3-1.5,3.9h0c0,1.6.5,2.9,1.6,3.9s2.3,1.5,3.7,1.5,1.3,0,1.9-.3c.5-.2,1-.5,1.4-.8s.8-.7,1-1.2.4-.7.4-.7l.8.4.8.4-.4.8c-.3.5-.7,1.1-1.4,1.6-.6.5-1.3.9-2,1.2s-1.6.4-2.6.4v-.2h0ZM649.3,263.1c-1.9,0-3.5-.7-4.8-2.1s-2-3.1-2-5.2h0c0-2.1.7-3.8,2-5.2,1.4-1.4,3-2,4.9-2s2.4.3,3.4.8,1.8,1.2,2.2,2.1l-.2-.2v-7.5h1.9v19.1h-1.9v-2.5l.2-.2c-.4.9-1.2,1.6-2.2,2.1-1.1.5-2.2.8-3.5.8h0ZM649.7,261.3c1.5,0,2.8-.5,3.8-1.6s1.4-2.3,1.4-3.9h0c0-1.6-.5-2.9-1.5-3.9s-2.2-1.5-3.7-1.5-2.8.5-3.8,1.5-1.5,2.3-1.5,4h0c0,1.7.5,3,1.5,4s2.3,1.5,3.8,1.5h0ZM673.2,263.1c-1.3,0-2.4-.3-3.5-.8-1-.5-1.8-1.2-2.2-2.1l.2.2v2.4h-1.8v-19h1.9v7.5l-.2.2c.4-.9,1.2-1.6,2.2-2.1s2.2-.8,3.4-.8c1.9,0,3.5.7,4.9,2,1.4,1.4,2,3.1,2,5.2h0c0,2.1-.7,3.8-2,5.2s-3,2.1-4.8,2.1h-.1ZM672.8,261.3c1.5,0,2.8-.5,3.8-1.5s1.5-2.3,1.5-4h0c0-1.6-.5-3-1.5-4s-2.3-1.5-3.8-1.5-2.7.5-3.7,1.5-1.5,2.3-1.5,3.9h0c0,1.5.5,2.8,1.4,3.9,1,1,2.2,1.6,3.8,1.6h0ZM684.9,268h-1.4l.6-1.3,2.2-4.9v1.1l-5.6-12.8c-.3-.8-.5-1.2-.5-1.2h2l.2.5,4.4,10.2.3.6h0l.3-.6,4.4-10.2.2-.5h2s-.2.4-.5,1.2l-7.6,17.4c0,.3-.2.5-.2.5h-.8Z"/>
    </g>
  </g>
  <g class="st3">
    <g class="st3">
      <text class="st4" transform="translate(699.3 268)"><tspan x="0" y="0">PIF Cloud Team</tspan></text>
    </g>
  </g>
</svg>